<?xml version="1.0" encoding="UTF-8"?>
<svg id="Layer_1" data-name="Layer 1" xmlns="http://www.w3.org/2000/svg" xmlns:xlink="http://www.w3.org/1999/xlink" viewBox="0 0 1119.89 794.65">
  <defs>
    <style>
      .cls-1 {
        fill: url(#linear-gradient);
        stroke-width: 0px;
      }
    </style>
    <linearGradient id="linear-gradient" x1="0" y1="397.32" x2="1119.89" y2="397.32" gradientUnits="userSpaceOnUse">
      <stop offset="0" stop-color="#ff8171"/>
      <stop offset=".29" stop-color="#ff7e71"/>
      <stop offset=".47" stop-color="#ff7571"/>
      <stop offset=".63" stop-color="#ff6671"/>
      <stop offset=".77" stop-color="#ff5171"/>
      <stop offset=".9" stop-color="#ff3771"/>
      <stop offset="1" stop-color="#ff1c72"/>
    </linearGradient>
  </defs>
  <path class="cls-1" d="M177.54,396.35c0-43.22,33.76-77.41,76.55-77.41,24.08,0,44.94,10.97,58.27,27.09,1.72,1.93,2.58,4.3,2.58,6.45,0,4.95-4.09,9.03-9.25,9.03-2.37,0-5.16-1.5-7.31-3.65-10.32-12.9-25.8-21.5-44.3-21.5-32.25,0-57.62,26.45-57.62,59.99s25.37,59.78,57.62,59.78c28.17,0,50.53-20.21,55.69-47.09h-43.01c-4.73,0-8.39-3.65-8.39-8.39s3.65-8.6,8.39-8.6h55.05c4.73,0,8.39,3.87,8.39,9.03-1.29,36.77-32.68,72.68-76.12,72.68s-76.55-34.19-76.55-77.41ZM347.82,416.77c0-31.82,24.51-56.98,56.77-56.98s56.55,25.16,56.55,56.98-24.3,56.98-56.55,56.98-56.77-25.16-56.77-56.98ZM443.72,416.77c0-22.79-16.99-41.07-39.13-41.07s-39.35,18.28-39.35,41.07,17.2,41.07,39.35,41.07,39.13-18.49,39.13-41.07ZM485.42,330.12c0-4.95,4.09-9.03,9.03-9.03h33.76c27.31,0,45.16,19.14,45.16,43s-17.85,42.79-45.16,42.79h-6.45c-4.73,0-8.39-3.65-8.39-8.39s3.65-8.6,8.39-8.6h5.81c16.34,0,26.88-11.4,26.88-25.8s-10.54-26.02-26.88-26.02h-23.87v126c0,4.95-4.09,9.25-9.25,9.25s-9.03-4.3-9.03-9.25v-133.96ZM594.42,327.97c0-4.73,3.65-8.6,8.6-8.6s8.6,3.87,8.6,8.6v45.15c6.88-7.31,17.85-13.33,32.04-13.33,25.16,0,45.15,18.49,45.15,49.67v55.05c0,4.95-3.87,8.82-8.6,8.82s-8.6-3.87-8.6-8.82v-55.48c0-22.15-13.33-33.33-30.1-33.33s-29.89,10.97-29.89,33.33v55.48c0,4.95-3.87,8.82-8.6,8.82s-8.6-3.87-8.6-8.82v-136.54ZM712.89,416.77c0-31.82,24.51-56.98,56.77-56.98s56.55,25.16,56.55,56.98-24.3,56.98-56.55,56.98-56.77-25.16-56.77-56.98ZM808.79,416.77c0-22.79-16.99-41.07-39.13-41.07s-39.35,18.28-39.35,41.07,17.2,41.07,39.35,41.07,39.13-18.49,39.13-41.07ZM833.71,369.9c0-4.52,3.65-7.95,7.96-7.95h11.39v-19.35c0-4.95,3.87-8.6,8.6-8.6s8.6,3.65,8.6,8.6v19.35h28.38c4.3,0,7.95,3.44,7.95,7.95s-3.65,7.96-7.95,7.96h-28.38v48.59c0,20,11.4,30.75,28.38,30.75,4.3,0,7.95,3.66,7.95,7.96,0,4.52-3.65,8.17-7.95,8.17-26.66,0-45.58-18.06-45.58-46.87v-48.59h-11.39c-4.3,0-7.96-3.66-7.96-7.96ZM918.86,416.77c0-31.82,24.51-56.98,56.77-56.98s56.55,25.16,56.55,56.98-24.3,56.98-56.55,56.98-56.77-25.16-56.77-56.98ZM1014.76,416.77c0-22.79-16.99-41.07-39.13-41.07s-39.35,18.28-39.35,41.07,17.2,41.07,39.35,41.07,39.13-18.49,39.13-41.07ZM1059.25,439.35c2.8,0,6.24,1.72,7.31,5.16,1.93,6.02,7.52,13.76,19.13,13.76,10.32,0,16.99-7.53,16.99-15.7,0-10.75-8.6-15.7-20-19.57-14.84-4.95-29.89-10.75-29.89-32.04,0-17.63,13.98-31.18,33.11-31.18,18.06,0,33.33,11.18,33.33,25.8,0,4.3-3.44,7.74-7.74,7.74-2.37,0-6.24-1.07-7.53-6.02-1.5-5.59-7.95-12.26-18.06-12.26s-16.56,7.53-16.56,15.91c0,11.4,10.32,15.27,23.01,19.35,13.55,4.09,27.52,11.61,27.52,31.82,0,16.99-14.62,31.61-34.19,31.61s-34.19-12.69-34.19-26.66c0-4.3,3.44-7.74,7.74-7.74ZM132.99,388.22v47.38c0,2.97.12,5.99-.25,8.94l.21-1.58c-.35,2.55-1.02,5.04-2.01,7.42l.6-1.42c-.71,1.68-1.57,3.29-2.58,4.81-.26.4-.54.78-.82,1.17-.6.84.38-.38.38-.48,0,.1-.42.53-.49.6-.58.69-1.19,1.36-1.82,2s-1.31,1.25-2,1.82c-.17.14-.34.27-.5.41-.53.44,1.23-.91.48-.38-.38.28-.77.56-1.16.82-1.55,1.04-3.2,1.92-4.92,2.65.47-.2.94-.4,1.42-.6-2.38.99-4.86,1.66-7.42,2.01l1.58-.21c-3.38.43-6.86.25-10.26.25h-60.17c-2.74,0-5.48.01-8.22,0-1.28,0-2.56-.09-3.83-.25l1.58.21c-2.55-.35-5.04-1.02-7.42-2.01.47.2.94.4,1.42.6-1.68-.71-3.29-1.57-4.81-2.58-.4-.26-.78-.54-1.17-.82-.84-.6.38.38.48.38-.1,0-.53-.42-.6-.49-.69-.58-1.36-1.19-2-1.82s-1.25-1.31-1.82-2c-.14-.17-.27-.34-.41-.5-.44-.53.91,1.23.38.48-.28-.38-.56-.77-.82-1.16-1.04-1.55-1.92-3.2-2.65-4.92l.6,1.42c-.99-2.38-1.66-4.86-2.01-7.42l.21,1.58c-.3-2.4-.25-4.81-.25-7.23v-36.24c0-2.76-.1-5.55.25-8.29l-.21,1.58c.35-2.55,1.02-5.04,2.01-7.42l-.6,1.42c.71-1.68,1.57-3.29,2.58-4.81.26-.4.54-.78.82-1.17.6-.84-.38.38-.38.48,0-.1.42-.53.49-.6.58-.69,1.19-1.36,1.82-2s1.31-1.25,2-1.82c.17-.14.34-.27.5-.41.53-.44-1.23.91-.48.38.38-.28.77-.56,1.16-.82,1.55-1.04,3.2-1.92,4.92-2.65l-1.42.6c2.38-.99,4.86-1.66,7.42-2.01l-1.58.21c3.62-.46,7.38-.25,11.02-.25h67.63c3.63,0,7.26-.04,10.89,0,4.55.05,9.2-.98,13.15-3.31,10.48-6.19,12.77-19.96,9.85-30.97-1.26-4.76-3.9-9.38-7.8-12.45-3.08-2.42-6.56-4.22-10.42-5.04-3.77-.8-7.11-.8-10.88-.06-3.3.66-6.62,2.03-9.32,4.04-4.42,3.29-7.49,7.7-9.03,13.02-.87,3.03-1.22,6.27-1.24,9.42-.03,3.1,2.75,6.07,5.93,5.93,3.24-.14,5.9-2.61,5.93-5.93.01-1.39.1-2.78.27-4.16l-.21,1.58c.28-2.08.78-4.11,1.59-6.04l-.6,1.42c.5-1.17,1.1-2.29,1.83-3.33.09-.12.18-.25.27-.37.39-.56-.64.79-.6.77.2-.1.41-.5.56-.68.37-.42.77-.83,1.18-1.22.58-.54,1.9-1.44.11-.16.4-.29.8-.57,1.22-.84.82-.52,1.69-.96,2.58-1.35l-1.42.6c1.73-.73,3.56-1.22,5.42-1.48l-1.58.21c1.62-.21,3.2-.21,4.82,0-.53-.07-1.05-.14-1.58-.21,1.86.26,3.68.75,5.41,1.47l-1.42-.6c.87.37,1.71.8,2.51,1.3.42.26.81.55,1.21.83.67.46-1.17-.94-.76-.59.1.09.21.17.31.25.21.17.41.36.61.54.39.36.77.75,1.13,1.15.19.22.37.45.57.67.36.41-1.02-1.41-.54-.7.07.1.14.2.21.29.75,1.06,1.37,2.2,1.88,3.39l-.6-1.42c.81,1.93,1.31,3.95,1.6,6.01l-.21-1.58c.37,2.83.4,5.71.02,8.53.07-.53.14-1.05.21-1.58-.26,1.81-.7,3.59-1.41,5.28l.6-1.42c-.44,1.04-.97,2.03-1.62,2.96-.07.1-.14.2-.21.29-.27.39-.78.83.55-.7-.15.18-.29.36-.45.54-.33.38-.68.74-1.05,1.09-.16.15-.32.29-.49.43-.23.19-1.03.82-.02.04s-.21.12-.55.34c-.75.47-1.53.87-2.34,1.22l1.42-.6c-1.6.67-3.27,1.11-4.99,1.35l1.58-.21c-1.93.26-3.89.17-5.83.17H39.04c-5.34,0-10.64.14-15.73,2.04-5.8,2.16-11.16,5.66-15.08,10.51-3.98,4.93-6.84,10.7-7.72,17.03-.75,5.4-.46,10.93-.46,16.38v23.36c0,5.7-.35,11.56.8,17.18,2.52,12.39,12.3,22.61,24.34,26.18,4.97,1.47,10.01,1.41,15.11,1.41h63.02c4.56,0,9.04.13,13.55-.72,12.41-2.34,22.65-11.99,26.42-23.91,1.78-5.63,1.56-11.43,1.56-17.24v-45.61c0-3.1-2.73-6.07-5.93-5.93-3.21.14-5.93,2.61-5.93,5.93h0ZM114.88,382.2c-3.45,0-6.24,2.79-6.24,6.24s2.79,6.24,6.24,6.24,6.24-2.79,6.24-6.24-2.79-6.24-6.24-6.24ZM44.05,417.61c0-17,13.36-30.45,30.28-30.45,9.22,0,17.17,3.98,22.33,9.81.93.93,1.35,2.28,1.35,3.38,0,2.71-2.2,4.91-4.99,4.91-1.27,0-2.71-.76-3.98-1.95-3.55-3.98-8.63-6.6-14.72-6.6-11.16,0-20.05,9.22-20.05,20.89,0,11.59,8.88,20.81,20.05,20.81,8.8,0,16.32-5.75,18.95-14.55h-14.46c-2.62,0-4.65-2.03-4.65-4.57,0-2.62,2.03-4.65,4.65-4.65h21.06c2.54,0,4.57,2.03,4.57,4.91-.42,13.96-12.77,28.5-30.11,28.5-16.92,0-30.28-13.45-30.28-30.45Z"/>
</svg>